<svg xmlns="http://www.w3.org/2000/svg" xmlns:xlink="http://www.w3.org/1999/xlink" fill="none" version="1.1" width="296" height="296" viewBox="44 -39 296 296"><g style="mix-blend-mode:passthrough"><g style="mix-blend-mode:passthrough"><g style="mix-blend-mode:passthrough"><rect x="210" y="85" width="92" height="28" rx="0" fill="#41B883" fill-opacity="1"/></g><g style="mix-blend-mode:passthrough"><rect x="211" y="66.99999237060547" width="92" height="18" rx="0" fill="#35495E" fill-opacity="1"/></g><g style="mix-blend-mode:passthrough"><rect x="210" y="113" width="92" height="18" rx="0" fill="#35495E" fill-opacity="1"/></g><g style="mix-blend-mode:passthrough"><path d="M292 20C292 20 292 20 292 20L306 20C313.7319864976311 20 320 26.268013502368895 320 34L320 184C320 191.7319864976311 313.7319864976311 198 306 198L292 198C292 198 292 198 292 198Z" fill="#41B883" fill-opacity="1"/></g></g><g style="mix-blend-mode:passthrough"><path d="M64,46C64,31.6406,75.6406,20,90,20L92,20L92,170L192,170L192,20L194,20C208.359,20,220,31.6406,220,46L220,172C220,186.359,208.359,198,194,198L90,198C75.6406,198,64,186.359,64,172L64,46Z" fill-rule="evenodd" fill="#41B883" fill-opacity="1"/></g><g style="mix-blend-mode:passthrough"><path d="M92,20L120,20L120,142L164,142L164,20L192,20L192,170L92,170L92,20Z" fill-rule="evenodd" fill="#35495E" fill-opacity="1"/></g></g></svg>